<?xml version="1.0" encoding="utf-8"?>
<!-- Generator: Adobe Illustrator 25.2.1, SVG Export Plug-In . SVG Version: 6.00 Build 0)  -->
<svg version="1.1" id="Capa_1" xmlns="http://www.w3.org/2000/svg" xmlns:xlink="http://www.w3.org/1999/xlink" x="0px" y="0px"
	 viewBox="0 0 408.4 72.1" style="enable-background:new 0 0 408.4 72.1;" xml:space="preserve">
<style type="text/css">
	.st0{fill:#FF7E2A;}
</style>
<g>
	<path class="st0" d="M0,26.4c2.6-3.3,6.4-3.2,10-3.9c4.7-0.8,10.4-0.2,13.8-2.7s4.6-8.1,6.8-12.3c0.7-1.4,1.1-3.1,2.2-4.2
		c1.4-1.4,3.3-3.1,5-3.1c2,0.3,3.8,1.4,4.9,3.1c2.8,4.7,4.8,9.8,7.5,14.5c0.9,1.5,2.3,2.5,4,2.9c5.2,1,10.5,1.4,15.7,2.6
		c2,0.5,4.6,2.2,5.2,3.9c0.6,1.5-0.7,4.3-2,5.8c-3.5,4-7.7,7.4-11.3,11.3c-1.1,1.3-1.7,3-1.5,4.8c0.6,5,1.9,9.9,2.4,14.9
		c0.2,2.2-0.4,5.2-1.7,6.8c-2,2.4-4.9,1-7.3-0.3c-4.5-2.4-8.9-4.9-13.5-6.9c-1.6-0.6-3.4-0.6-5,0c-4.8,2.2-9.3,5.1-14.2,7.2
		c-1.8,0.8-4.8,1-6.2,0s-2.2-3.9-2-5.8c0.5-5.3,1.4-10.5,2.6-15.7c0.6-2.5-0.2-3.9-1.9-5.5c-4.6-4.4-9-9-13.5-13.5L0,26.4z"/>
	<path class="st0" d="M95.9,65.8c0.9-5.2,1.8-10.7,2.9-16.2c0.6-2-0.1-4.3-1.7-5.6c-3.9-3.4-7.6-7-11.1-10.9
		c-1.4-1.5-2.5-4.5-1.9-6.2s3.3-3.2,5.4-3.7c5-1.2,10.2-1.5,15.3-2.5c1.7-0.4,3.1-1.4,4.1-2.9c2.4-4.2,4.5-8.7,6.6-13.2
		c1.2-2.5,2.5-4.8,5.7-4.8c3.4,0,4.8,2.3,6,5c2,4.3,4,8.7,6.4,12.8c1,1.5,2.6,2.6,4.4,3.1c4.9,1,10,1.3,14.9,2.5
		c2.2,0.5,5.1,2.1,5.7,3.8s-1,4.7-2.4,6.4c-3.3,3.7-6.8,7.1-10.5,10.3c-1.7,1.6-2.5,3-1.9,5.5c1.2,5.2,2,10.4,2.5,15.7
		c0.2,1.9-0.6,4.8-2,5.8s-4.4,0.8-6.2,0c-4.6-2-9.1-4.4-13.4-7c-2.5-1.5-4.5-1.3-6.9,0.1c-4.5,2.6-9.1,5-13.7,7.2
		C99.4,73.4,95.6,70.8,95.9,65.8z"/>
	<path class="st0" d="M242.2,29.6c-0.7,1.2-1.5,2.4-2.4,3.5c-3.6,3.7-7.6,7.1-11,11c-1.3,1.5-1.9,3.5-1.8,5.5
		c0.5,5.1,1.9,10.2,2.4,15.3c0.2,2-0.5,4.8-1.8,5.9s-4.4,0.9-6.2,0.2c-4.7-2.1-9.3-4.5-13.8-7.1c-2.2-1.3-3.9-1.4-6.2-0.1
		c-4.3,2.6-8.8,5-13.4,7c-1.9,0.8-5,1.2-6.5,0.1s-2.1-4.1-1.9-6.2c0.5-5.2,1.8-10.2,2.4-15.3c0.1-1.9-0.5-3.7-1.7-5.2
		c-3.6-3.9-7.7-7.3-11.2-11.3c-1.3-1.5-2.3-4.3-1.7-5.9s3.1-3.2,5-3.6c5.3-1.2,10.8-1.6,16.1-2.6c1.4-0.3,2.7-1.2,3.5-2.5
		c2.6-4.8,4.7-9.8,7.5-14.5c1-1.7,3.3-3.5,5.1-3.5s4.1,1.7,5.1,3.4c2.7,4.5,4.7,9.5,7.3,14.2c0.9,1.5,2.3,2.5,4,2.9
		c5.3,1.1,10.8,1.7,16.1,2.5C240,23.7,242.1,25.2,242.2,29.6z"/>
	<path class="st0" d="M345.7,65.6c0.9-5.2,2-10.8,2.7-16.5c0.1-1.7-0.4-3.4-1.5-4.8c-3.5-3.8-7.6-7.1-11-11
		c-1.5-1.7-2.4-3.9-2.4-6.2c0.2-2.8,2.9-3.7,5.6-4c5.3-0.7,10.5-1.4,15.8-2.4c1.4-0.3,2.7-1.2,3.5-2.5c2.6-4.8,4.7-9.8,7.4-14.5
		c1-1.7,3.3-3.5,5.1-3.5c1.7,0,4.1,1.8,5.1,3.4c2.6,4.5,4.9,9.1,7,13.8c1,2.1,2.2,3.2,4.7,3.5c5.2,0.4,10.3,1.2,15.3,2.3
		c2,0.5,4.6,2.1,5.3,3.8c0.6,1.5-0.6,4.3-1.9,5.8c-3.5,3.8-7.2,7.5-11.1,10.9c-1.7,1.6-2.4,3-1.9,5.5c1.2,5,2,10.2,2.5,15.3
		c0.2,2.1-0.6,5.2-2,6.2c-1.4,1-4.6,0.6-6.6-0.2c-4.5-2-8.9-4.3-13.1-6.8c-2.3-1.3-4.1-1.5-6.5-0.1c-4.6,2.7-9.3,5.1-14.1,7.4
		C349.1,73.4,345.5,70.9,345.7,65.6z M384.3,57.2c-5.1-11.1-0.9-18.7,7.9-25.1c-11.7,0.8-18.3-4.4-20.9-16.2
		c-2.1,4.2-3.6,7.1-5,10.1c-1,2.7-3.5,4.5-6.4,4.7c-3.2,0.3-6.4,1-9.6,1.5l-0.9,0.7c10.1,5.6,12.3,13.8,8.4,24.5
		C366.7,49.9,375.2,50.1,384.3,57.2L384.3,57.2z"/>
	<path class="st0" d="M262.4,65.3c0.9-5.2,2-10.8,2.7-16.5c0.1-1.7-0.4-3.4-1.5-4.8c-3.5-3.8-7.6-7.1-11-11
		c-1.5-1.7-2.4-3.9-2.4-6.2c0.2-2.8,2.9-3.7,5.6-4c5.3-0.7,10.5-1.4,15.7-2.4c1.4-0.3,2.7-1.2,3.5-2.5c2.6-4.8,4.7-9.8,7.4-14.5
		c1-1.7,3.3-3.5,5.1-3.5s4.1,1.8,5.1,3.4c2.6,4.5,4.9,9.1,7,13.8c1,2.1,2.2,3.2,4.7,3.5c5.2,0.4,10.3,1.2,15.3,2.3
		c2,0.5,4.6,2.1,5.3,3.8c0.6,1.5-0.6,4.3-2,5.8c-3.5,3.8-7.2,7.5-11.1,10.9c-1.7,1.6-2.4,3-1.9,5.5c1.2,5,2,10.2,2.5,15.3
		c0.2,2.1-0.6,5.2-2,6.2c-1.4,1-4.6,0.6-6.5-0.2c-4.5-2-8.8-4.3-13.1-6.8c-2.3-1.3-4.1-1.5-6.5-0.1c-4.6,2.7-9.3,5.1-14.1,7.4
		C265.8,73.2,262.2,70.7,262.4,65.3z M301,56.9c-5.1-11.1-0.9-18.7,7.9-25.1c-11.7,0.8-18.3-4.4-20.9-16.2c-2.1,4.2-3.6,7.1-5,10.1
		c-1,2.7-3.5,4.5-6.4,4.7c-3.2,0.3-6.4,1-9.6,1.5l-0.9,0.7c10.1,5.6,12.3,13.8,8.4,24.5C283.4,49.7,291.9,49.8,301,56.9z"/>
</g>
</svg>
